# xmcd
#
# Track frame offsets: 
#        150
#        4653
#        9549
#        15597
#        21894
#        27051
#        32879
#        38784
#        44111
#        50454
#        56137
#        61943
#        65965
#        70609
#        75758
#        79539
#        85298
#        89871
#        95378
#        100564
#        106181
#        109348
#        113057
#        117701
#        123605
#        129402
#        134406
#        139842
#        144450
#        148136
#        153875
#        158271
#        164970
#        170785
#        176601
#        180478
#        186814
#        191175
#        197822
#        202132
#
# Disc length: 2780 seconds
#
# Revision: 0
# Processed by: cddbd v1.5.1PL2 Copyright (c) Steve Scherf et al.
# Submitted via: ExactAudioCopy v0.95b4
#
DISCID=3d0ada28
DTITLE=Various Artist - Jaanju HitMix
DYEAR=2006
DGENRE=Country
TTITLE0=Dainis Porgants - Katru gadu Jaaniits naaca
TTITLE1=Kaapiitis - Ahoi, Liigo
TTITLE2=Migla - Liigas sveetki
TTITLE3=Eriks Gruzdins - Shii nakts visiisaakaa
TTITLE4=Gjildes muzikanti - Vienu pashu jaanju zaali
TTITLE5=Briivdiena - Sveetku vakaraa
TTITLE6=Zelli - Jaanju nakts ugunskurs
TTITLE7=Dainis Porgants - Jaani, kaa tad taa
TTITLE8=Lauku zeeni - Triis viiri
TTITLE9=Eriks Gruzdinjsh - Liigo, maaminj, liigodama
TTITLE10=Gjildes muzikanti - Jaanjuguns
TTITLE11=Aleksis Kochnjevs - No riita peec liigo
TTITLE12=Pljumpapaa - Vai ticati, neticati
TTITLE13=Aldis Rullis - Ja tu veel atnaaktu
TTITLE14=Lauku zeeni - Lai iedzeram, lai svinam
TTITLE15=Briivdiena - Liigo, liigo
TTITLE16=Zellji - Katru gadu Jaaniits naaca
TTITLE17=Eeriks Gruzninjsa - Jaanju dziesma
TTITLE18=Dainis Porgants - Ai, Jaani
TTITLE19=Pljumpapaa - Karstais Veejsh
TTITLE20=Aldis Shteimanis - Turi, meitinj, stabuliiti
TTITLE21=Alexis Kochnevs - Jaanju lietus
TTITLE22=Sandis Kiops - Sai Liigo naktii
TTITLE23=Zelli - Jaanju atbalss
TTITLE24=Briivdiena - Sanaaksim visi kopaa
TTITLE25=Jaanis paplavskis - 3 zaigznes
TTITLE26=Sandra - Liigo vakaraa
TTITLE27=OK - Vasara
TTITLE28=Rozamunde - Jaanju naktii divas domas
TTITLE29=Staburags - Vienaa papardes ziedaa
TTITLE30=Zelli - Vecpiebalgas uudensroze
TTITLE31=Pljumpapaa - 1 dienu gadaa
TTITLE32=Veeja runa - Pieneniite
TTITLE33=Jugla - Gada iisaakaa nakts
TTITLE34=Sandra - Jaaniits patiik man
TTITLE35=Aigarinjsh - Papardes
TTITLE36=Roja - Vasaras veejaa
TTITLE37=Lauku zeeni - Un taa mees kopaa dzeram
TTITLE38=Briivdiena - Vasara jaukaa
TTITLE39=Aigarinjsh - Superliigo
EXTD=
EXTT0=
EXTT1=
EXTT2=
EXTT3=
EXTT4=
EXTT5=
EXTT6=
EXTT7=
EXTT8=
EXTT9=
EXTT10=
EXTT11=
EXTT12=
EXTT13=
EXTT14=
EXTT15=
EXTT16=
EXTT17=
EXTT18=
EXTT19=
EXTT20=
EXTT21=
EXTT22=
EXTT23=
EXTT24=
EXTT25=
EXTT26=
EXTT27=
EXTT28=
EXTT29=
EXTT30=
EXTT31=
EXTT32=
EXTT33=
EXTT34=
EXTT35=
EXTT36=
EXTT37=
EXTT38=
EXTT39=
PLAYORDER=
